<svg width="289" height="185" viewBox="0 0 289 185" fill="none" xmlns="http://www.w3.org/2000/svg">
<path d="M19.968 92.2C19.968 96.9787 20.4373 101.373 21.376 105.384C22.3147 109.395 23.6373 112.851 25.344 115.752C27.136 118.653 29.2693 120.915 31.744 122.536C34.2187 124.072 36.9493 124.84 39.936 124.84C43.0933 124.84 45.8667 124.072 48.256 122.536C50.7307 120.915 52.8213 118.653 54.528 115.752C56.32 112.851 57.6853 109.395 58.624 105.384C59.5627 101.373 60.032 96.9787 60.032 92.2C60.032 87.4213 59.5627 83.0267 58.624 79.016C57.6853 75.0053 56.32 71.5493 54.528 68.648C52.8213 65.7467 50.7307 63.528 48.256 61.992C45.8667 60.3707 43.0933 59.56 39.936 59.56C36.9493 59.56 34.2187 60.3707 31.744 61.992C29.2693 63.528 27.136 65.7467 25.344 68.648C23.6373 71.5493 22.3147 75.0053 21.376 79.016C20.4373 83.0267 19.968 87.4213 19.968 92.2ZM5.12 92.2C5.12 82.8987 6.57067 74.792 9.472 67.88C12.4587 60.968 16.5547 55.592 21.76 51.752C27.0507 47.912 33.1093 45.992 39.936 45.992C46.9333 45.992 53.0347 47.912 58.24 51.752C63.5307 55.592 67.6267 60.968 70.528 67.88C73.4293 74.792 74.88 82.8987 74.88 92.2C74.88 101.501 73.4293 109.608 70.528 116.52C67.6267 123.432 63.5307 128.808 58.24 132.648C53.0347 136.488 46.9333 138.408 39.936 138.408C33.1093 138.408 27.0507 136.488 21.76 132.648C16.5547 128.808 12.4587 123.432 9.472 116.52C6.57067 109.608 5.12 101.501 5.12 92.2ZM82.56 137L124.032 93.352C126.165 91.048 128 88.8293 129.536 86.696C131.072 84.5627 132.224 82.4293 132.992 80.296C133.76 78.1627 134.144 75.9013 134.144 73.512C134.144 71.8053 133.803 70.1413 133.12 68.52C132.523 66.8133 131.541 65.2773 130.176 63.912C128.896 62.5467 127.317 61.48 125.44 60.712C123.563 59.8587 121.387 59.432 118.912 59.432C115.499 59.432 112.555 60.2427 110.08 61.864C107.605 63.4 105.685 65.6613 104.32 68.648C103.04 71.6347 102.4 75.0907 102.4 79.016H87.424C87.424 72.616 88.6187 66.9413 91.008 61.992C93.4827 56.9573 97.0667 53.032 101.76 50.216C106.539 47.3147 112.341 45.864 119.168 45.864C124.373 45.864 128.896 46.7173 132.736 48.424C136.576 50.0453 139.733 52.1787 142.208 54.824C144.768 57.4693 146.645 60.3707 147.84 63.528C149.12 66.6853 149.76 69.7573 149.76 72.744C149.76 77.4373 148.608 81.96 146.304 86.312C144.085 90.664 141.141 94.5467 137.472 97.96L112 122.92H150.912V137H82.56Z" fill="black"/>
<path d="M170.858 78.4499C171.242 79.0438 171.801 79.4979 172.535 79.8123C173.234 80.1617 174.055 80.3364 174.998 80.3364C175.801 80.3364 176.588 79.9696 177.356 79.2359C178.16 78.5372 178.561 77.332 178.561 75.6201V36.3181H182.754V76.1442C182.754 77.5765 182.561 78.8167 182.177 79.8648C181.828 80.9128 181.304 81.7862 180.605 82.4849C179.906 83.1836 179.05 83.6901 178.037 84.0046C177.059 84.3539 175.959 84.5286 174.736 84.5286C173.828 84.5286 172.954 84.3714 172.116 84.057C171.242 83.7775 170.509 83.4281 169.915 83.0089C169.286 82.6246 168.832 82.2578 168.552 81.9085L170.858 78.4499ZM195.08 63.5675C195.08 65.4889 195.517 66.9737 196.391 68.0217C197.264 69.0698 198.539 69.5938 200.216 69.5938C201.439 69.5938 202.504 69.3493 203.413 68.8602C204.356 68.3362 205.072 67.62 205.561 66.7117C206.085 65.8034 206.347 64.7553 206.347 63.5675V48.8948H210.539V73H206.347V69.227C205.544 70.6593 204.548 71.7423 203.36 72.476C202.172 73.1747 200.775 73.524 199.168 73.524C196.653 73.524 194.644 72.6681 193.142 70.9563C191.639 69.2445 190.888 66.9562 190.888 64.0915V48.8948H195.08V63.5675ZM233.879 58.3272C233.879 56.3359 233.442 54.8337 232.569 53.8206C231.695 52.8075 230.42 52.3009 228.743 52.3009C227.521 52.3009 226.438 52.563 225.495 53.087C224.586 53.5761 223.87 54.2748 223.346 55.1831C222.857 56.0914 222.612 57.1395 222.612 58.3272V73H218.42V48.8948H222.612V52.6678C223.416 51.2005 224.412 50.1175 225.599 49.4188C226.822 48.7201 228.219 48.3707 229.792 48.3707C232.342 48.3707 234.351 49.2266 235.818 50.9385C237.32 52.6154 238.071 54.9036 238.071 57.8032V73H233.879V58.3272ZM245.952 38.9383C245.952 38.1347 246.232 37.4535 246.79 36.8946C247.384 36.3356 248.066 36.0561 248.834 36.0561C249.638 36.0561 250.319 36.3356 250.878 36.8946C251.437 37.4535 251.716 38.1347 251.716 38.9383C251.716 39.7068 251.437 40.3881 250.878 40.982C250.319 41.5409 249.638 41.8204 248.834 41.8204C248.066 41.8204 247.384 41.5409 246.79 40.982C246.232 40.3881 245.952 39.7068 245.952 38.9383ZM246.738 48.8948H250.93V73H246.738V48.8948Z" fill="black"/>
<path d="M168.048 136.457L185.393 117.958C186.197 117.085 186.878 116.229 187.437 115.391C188.031 114.517 188.468 113.644 188.747 112.771C189.062 111.862 189.219 110.919 189.219 109.941C189.219 109.137 189.062 108.351 188.747 107.583C188.433 106.814 187.961 106.115 187.332 105.487C186.738 104.858 186.005 104.351 185.131 103.967C184.258 103.583 183.262 103.39 182.144 103.39C180.572 103.39 179.21 103.757 178.057 104.491C176.939 105.19 176.083 106.22 175.489 107.583C174.895 108.91 174.598 110.5 174.598 112.351H170.144C170.144 109.731 170.616 107.443 171.559 105.487C172.502 103.495 173.865 101.958 175.646 100.875C177.463 99.7572 179.629 99.1982 182.144 99.1982C184.171 99.1982 185.917 99.5476 187.385 100.246C188.852 100.91 190.057 101.783 191 102.866C191.944 103.914 192.642 105.05 193.097 106.273C193.551 107.495 193.778 108.666 193.778 109.784C193.778 111.67 193.324 113.539 192.415 115.391C191.507 117.242 190.337 118.902 188.904 120.369L177.219 132.264H193.935V136.457H168.048ZM203.385 118.116C203.385 120.247 203.595 122.22 204.014 124.037C204.433 125.819 205.044 127.373 205.848 128.701C206.651 129.994 207.612 131.007 208.73 131.74C209.883 132.439 211.158 132.788 212.556 132.788C213.988 132.788 215.263 132.439 216.381 131.74C217.499 131.007 218.46 129.994 219.263 128.701C220.067 127.373 220.678 125.819 221.097 124.037C221.516 122.22 221.726 120.247 221.726 118.116C221.726 115.985 221.516 114.028 221.097 112.247C220.678 110.43 220.067 108.875 219.263 107.583C218.46 106.255 217.499 105.242 216.381 104.543C215.263 103.81 213.988 103.443 212.556 103.443C211.158 103.443 209.883 103.81 208.73 104.543C207.612 105.242 206.651 106.255 205.848 107.583C205.044 108.875 204.433 110.43 204.014 112.247C203.595 114.028 203.385 115.985 203.385 118.116ZM198.931 118.116C198.931 114.447 199.507 111.198 200.66 108.369C201.813 105.539 203.403 103.321 205.429 101.714C207.49 100.072 209.866 99.2506 212.556 99.2506C215.246 99.2506 217.604 100.072 219.63 101.714C221.691 103.321 223.298 105.539 224.451 108.369C225.604 111.198 226.18 114.447 226.18 118.116C226.18 121.784 225.604 125.033 224.451 127.863C223.298 130.692 221.691 132.928 219.63 134.57C217.604 136.177 215.246 136.981 212.556 136.981C209.866 136.981 207.49 136.177 205.429 134.57C203.403 132.928 201.813 130.692 200.66 127.863C199.507 125.033 198.931 121.784 198.931 118.116ZM229.304 136.457L246.649 117.958C247.453 117.085 248.134 116.229 248.693 115.391C249.287 114.517 249.724 113.644 250.003 112.771C250.317 111.862 250.475 110.919 250.475 109.941C250.475 109.137 250.317 108.351 250.003 107.583C249.689 106.814 249.217 106.115 248.588 105.487C247.994 104.858 247.261 104.351 246.387 103.967C245.514 103.583 244.518 103.39 243.4 103.39C241.828 103.39 240.466 103.757 239.313 104.491C238.195 105.19 237.339 106.22 236.745 107.583C236.151 108.91 235.854 110.5 235.854 112.351H231.4C231.4 109.731 231.872 107.443 232.815 105.487C233.758 103.495 235.121 101.958 236.902 100.875C238.719 99.7572 240.885 99.1982 243.4 99.1982C245.426 99.1982 247.173 99.5476 248.641 100.246C250.108 100.91 251.313 101.783 252.256 102.866C253.2 103.914 253.898 105.05 254.352 106.273C254.807 107.495 255.034 108.666 255.034 109.784C255.034 111.67 254.579 113.539 253.671 115.391C252.763 117.242 251.593 118.902 250.16 120.369L238.474 132.264H255.191V136.457H229.304ZM259.139 129.12L279.471 99.7747H281.305V136.457H276.851V127.234V126.657V109.679L266.475 125.19H278.685H279.576H287.069V129.12H259.139Z" fill="black"/>
</svg>
