<svg width="201" height="123" viewBox="0 0 201 123" fill="none" xmlns="http://www.w3.org/2000/svg">
<path d="M63.2681 34.0671V89.6485L70.617 90.3242V91H49.8374V90.3242L56.7639 89.6485V38.2062H56.4261L36.0688 92.3515H35.2241L12.5016 38.1217H12.1637V85.8473C12.1637 87.1988 12.3326 88.1562 12.6705 88.7193C13.0084 89.2261 13.6842 89.5359 14.6978 89.6485L20.6952 90.3242V91H2.19622V90.3242L8.27807 89.6485C9.29172 89.5359 9.96748 89.2261 10.3054 88.7193C10.6432 88.1562 10.8122 87.1988 10.8122 85.8473V35.1652C10.418 34.4895 9.91116 34.039 9.29172 33.8137C8.72858 33.5321 7.88388 33.3914 6.75761 33.3914H2.87199V32.7156H17.3164L38.096 82.2996H38.4339L57.0173 32.7156H70.617V33.3914L63.2681 34.0671Z" fill="black"/>
<line x1="95.5" y1="106.5" x2="95.5" y2="16.5" stroke="black"/>
<path d="M200.021 32.7156V33.3914L195.29 33.8137C193.77 33.9263 192.728 34.2079 192.165 34.6584C191.602 35.0526 191.123 35.8973 190.729 37.1925L173.919 92.3515H172.568L157.785 50.2854L144.946 92.3515H143.594L123.068 34.0671L116.142 33.3914V32.7156H137.259V33.3914L129.91 34.0671L146.551 81.5393H146.889L157.025 48.2581L152.041 34.0671L145.115 33.3914V32.7156H166.232V33.3914L158.884 34.0671L175.524 81.5393H175.862L189.377 37.1925C189.546 36.5731 189.631 36.0381 189.631 35.5876C189.631 34.9681 189.462 34.5458 189.124 34.3205C188.786 34.039 188.138 33.87 187.181 33.8137L182.028 33.3914V32.7156H200.021Z" fill="black"/>
</svg>
